<?xml version="1.0" standalone="no"?>
<!DOCTYPE svg PUBLIC "-//W3C//DTD SVG 20010904//EN"
 "http://www.w3.org/TR/2001/REC-SVG-20010904/DTD/svg10.dtd">
<svg version="1.0" xmlns="http://www.w3.org/2000/svg"
 width="70.000000pt" height="70.000000pt" viewBox="0 0 70.000000 70.000000"
 preserveAspectRatio="xMidYMid meet">
<metadata>
Created by potrace 1.14, written by Peter Selinger 2001-2017
</metadata>
<g transform="translate(0.000000,70.000000) scale(0.100000,-0.100000)"
fill="#000000" stroke="none">
<path d="M312 688 c-100 -15 -194 -83 -248 -180 -26 -48 -29 -62 -29 -148 0
-112 21 -165 94 -238 237 -238 640 -8 557 317 -43 168 -202 274 -374 249z
m202 -78 c95 -58 157 -182 142 -286 -19 -143 -135 -251 -279 -259 -34 -2 -67
1 -74 7 -7 6 -13 8 -13 4 0 -13 -74 25 -115 58 -23 19 -55 61 -72 93 -59 110
-36 248 55 339 92 93 247 112 356 44z"/>
<path d="M304 618 c-20 -32 49 -99 109 -105 48 -6 117 19 117 42 0 23 -26 37
-39 21 -30 -36 -118 -19 -139 28 -10 22 -38 31 -48 14z"/>
<path d="M202 577 c-7 -8 -8 -26 -3 -49 12 -53 -13 -89 -74 -106 -49 -14 -37
-55 13 -46 82 15 133 108 102 188 -11 29 -22 33 -38 13z"/>
<path d="M365 480 c-3 -5 -8 -19 -10 -30 -5 -24 34 -54 59 -44 22 8 31 50 16
69 -14 17 -56 20 -65 5z"/>
<path d="M556 432 c-41 -60 -32 -136 22 -185 20 -18 21 -18 31 1 8 15 6 25 -8
43 -32 42 -33 73 -6 113 24 36 24 66 0 66 -7 0 -24 -17 -39 -38z"/>
<path d="M257 443 c-4 -3 -7 -19 -7 -35 0 -30 31 -51 58 -40 20 7 31 44 20 65
-9 17 -58 24 -71 10z"/>
<path d="M432 388 c-17 -17 -15 -65 4 -72 34 -13 54 -6 60 21 12 46 -33 82
-64 51z"/>
<path d="M257 332 c-33 -39 19 -94 59 -62 16 14 19 56 4 65 -22 14 -49 13 -63
-3z"/>
<path d="M117 302 c-31 -6 -15 -36 25 -45 51 -12 81 -47 81 -96 0 -41 22 -64
39 -39 22 35 2 114 -38 150 -22 19 -81 36 -107 30z"/>
<path d="M360 280 c-12 -22 2 -59 23 -61 39 -4 57 11 57 47 0 37 -62 48 -80
14z"/>
<path d="M415 201 c-22 -10 -75 -59 -75 -72 0 -4 -3 -14 -6 -23 -5 -12 0 -16
20 -16 14 0 26 5 26 10 0 6 11 22 25 35 25 26 76 33 105 15 16 -10 40 5 40 25
0 27 -91 44 -135 26z"/>
</g>
</svg>
